<?xml version="1.0"?>
<svg xmlns="http://www.w3.org/2000/svg" viewBox="0 0 50 50">
    <path style="line-height:normal;text-indent:0;text-align:start;text-decoration-line:none;text-decoration-style:solid;text-decoration-color:#000;text-transform:none;block-progression:tb;isolation:auto;mix-blend-mode:normal" d="M 25 4.0703125 C 12.368358 4.0703125 2.0703125 12.921769 2.0703125 24 C 2.0703125 30.431559 5.5919902 36.028787 11.003906 39.685547 C 10.995206 39.900392 11.011006 40.249664 10.728516 41.294922 C 10.378457 42.590139 9.6725165 44.413013 8.2382812 46.46875 L 7.21875 47.929688 L 9 47.929688 C 15.170926 47.929688 18.741551 43.907585 19.294922 43.261719 C 21.134299 43.693167 23.024925 43.929687 25 43.929688 C 37.631642 43.929688 47.929688 35.078231 47.929688 24 C 47.929688 12.921769 37.631642 4.0703125 25 4.0703125 z M 25 5.9296875 C 36.768358 5.9296875 46.070312 14.078231 46.070312 24 C 46.070312 33.921769 36.768358 42.070313 25 42.070312 C 22.959003 42.070312 21.040094 41.875066 19.236328 41.400391 L 18.654297 41.248047 L 18.277344 41.714844 C 18.277344 41.714844 15.390872 44.972567 10.78125 45.757812 C 11.617971 44.248981 12.233687 42.844147 12.521484 41.779297 C 12.921426 40.299514 12.929687 39.300781 12.929688 39.300781 L 12.929688 38.789062 L 12.498047 38.515625 C 7.2194156 35.156496 3.9296875 29.955815 3.9296875 24 C 3.9296875 14.078231 13.231642 5.9296875 25 5.9296875 z M 15 22 A 2 2 0 0 0 13 24 A 2 2 0 0 0 15 26 A 2 2 0 0 0 17 24 A 2 2 0 0 0 15 22 z M 25 22 A 2 2 0 0 0 23 24 A 2 2 0 0 0 25 26 A 2 2 0 0 0 27 24 A 2 2 0 0 0 25 22 z M 35 22 A 2 2 0 0 0 33 24 A 2 2 0 0 0 35 26 A 2 2 0 0 0 37 24 A 2 2 0 0 0 35 22 z" font-weight="400" font-family="sans-serif" white-space="normal" overflow="visible"/>
</svg>
