<?xml version="1.0"?>
<svg xmlns="http://www.w3.org/2000/svg" viewBox="0 0 50 50" enable-background="new 0 0 50 50">
    <path style="text-indent:0;text-align:start;line-height:normal;text-transform:none;block-progression:tb;-inkscape-font-specification:Bitstream Vera Sans" d="M 16 2 C 13.254545 2 11 4.2545455 11 7 L 7.90625 7 C 6.7506944 7 5.8055345 8.0589226 6.03125 9.1875 L 6.03125 9.28125 L 6.0625 9.375 C 7.3936156 12.797869 10.239232 15.67177 11 16.40625 L 11 20 L 7.8125 20 C 7.2347222 20 6.6656529 20.246059 6.3125 20.6875 C 5.9593471 21.128941 5.8344342 21.804836 6.0625 22.375 C 7.3936156 25.797869 10.239232 28.67177 11 29.40625 L 11 33 L 7.8125 33 C 7.2347222 33 6.6656529 33.246059 6.3125 33.6875 C 5.9593471 34.128941 5.8344342 34.804836 6.0625 35.375 C 7.3936156 38.797869 10.239232 41.67177 11 42.40625 L 11 43 C 11 45.745455 13.254545 48 16 48 L 34 48 C 36.745455 48 39 45.745455 39 43 L 39 42.40625 C 39.760768 41.67177 42.606384 38.797869 43.9375 35.375 C 44.165566 34.804836 44.040653 34.128941 43.6875 33.6875 C 43.334347 33.246059 42.765278 33 42.1875 33 L 39 33 L 39 29.40625 C 39.760768 28.67177 42.606384 25.797869 43.9375 22.375 C 44.165566 21.804836 44.040653 21.128941 43.6875 20.6875 C 43.334347 20.246059 42.765278 20 42.1875 20 L 39 20 L 39 16.40625 C 39.760768 15.67177 42.606384 12.797869 43.9375 9.375 C 44.165566 8.8048356 44.040653 8.1289411 43.6875 7.6875 C 43.334347 7.2460589 42.765278 7 42.1875 7 L 39 7 C 39 4.2545455 36.745455 2 34 2 L 16 2 z M 16 4 L 34 4 C 35.654545 4 37 5.3454545 37 7 L 37 43 C 37 44.654545 35.654545 46 34 46 L 16 46 C 14.345455 46 13 44.654545 13 43 L 13 7 C 13 5.3454545 14.345455 4 16 4 z M 25 7 C 22.250421 7 20 9.2504209 20 12 C 20 14.749579 22.250421 17 25 17 C 27.749579 17 30 14.749579 30 12 C 30 9.2504209 27.749579 7 25 7 z M 8.15625 9 L 11 9 L 11 13.375 C 10.025851 12.187491 8.8617655 10.601584 8.15625 9 z M 25 9 C 26.668699 9 28 10.331301 28 12 C 28 13.668699 26.668699 15 25 15 C 23.331301 15 22 13.668699 22 12 C 22 10.331301 23.331301 9 25 9 z M 39 9 L 41.84375 9 C 41.138234 10.601584 39.974149 12.187491 39 13.375 L 39 9 z M 25 20 C 22.250421 20 20 22.250421 20 25 C 20 27.749579 22.250421 30 25 30 C 27.749579 30 30 27.749579 30 25 C 30 22.250421 27.749579 20 25 20 z M 8.15625 22 L 11 22 L 11 26.375 C 10.025851 25.187491 8.8617655 23.601584 8.15625 22 z M 25 22 C 26.668699 22 28 23.331301 28 25 C 28 26.668699 26.668699 28 25 28 C 23.331301 28 22 26.668699 22 25 C 22 23.331301 23.331301 22 25 22 z M 39 22 L 41.84375 22 C 41.138234 23.601584 39.974149 25.187491 39 26.375 L 39 22 z M 25 33 C 22.250421 33 20 35.250421 20 38 C 20 40.749579 22.250421 43 25 43 C 27.749579 43 30 40.749579 30 38 C 30 35.250421 27.749579 33 25 33 z M 8.15625 35 L 11 35 L 11 39.375 C 10.025851 38.187491 8.8617655 36.601584 8.15625 35 z M 25 35 C 26.668699 35 28 36.331301 28 38 C 28 39.668699 26.668699 41 25 41 C 23.331301 41 22 39.668699 22 38 C 22 36.331301 23.331301 35 25 35 z M 39 35 L 41.84375 35 C 41.138234 36.601584 39.974149 38.187491 39 39.375 L 39 35 z"/>
</svg>
